<svg viewBox="0 0 1400 560" xmlns="http://www.w3.org/2000/svg">
  <rect width="1400" height="560" fill="#0a1220"/>

  <!-- soft glow -->
  <circle cx="1120" cy="150" r="190" fill="#3b82f6" opacity="0.06"/>
  <circle cx="1120" cy="150" r="130" fill="#3b82f6" opacity="0.08"/>
  <circle cx="1120" cy="150" r="70" fill="#60a5fa" opacity="0.12"/>

  <!-- stars -->
  <g fill="#dbeafe">
    <circle cx="700" cy="60" r="1.4" opacity="0.5"/>
    <circle cx="760" cy="110" r="1.2" opacity="0.4"/>
    <circle cx="840" cy="50" r="1.6" opacity="0.6"/>
    <circle cx="920" cy="90" r="1.2" opacity="0.4"/>
    <circle cx="990" cy="40" r="1.4" opacity="0.5"/>
    <circle cx="1050" cy="70" r="1.2" opacity="0.4"/>
    <circle cx="1230" cy="55" r="1.4" opacity="0.5"/>
    <circle cx="1300" cy="95" r="1.2" opacity="0.4"/>
    <circle cx="1360" cy="45" r="1.6" opacity="0.6"/>
    <circle cx="1180" cy="120" r="1.2" opacity="0.35"/>
  </g>

  <!-- circuit traces -->
  <g stroke="#3b82f6" stroke-width="1.5" fill="none" opacity="0.4" stroke-linecap="round">
    <polyline points="640,120 640,180 700,180 700,150 760,150"/>
    <polyline points="820,90 820,140 880,140"/>
    <polyline points="660,240 720,240 720,200"/>
  </g>
  <g fill="#60a5fa" opacity="0.55">
    <circle cx="640" cy="120" r="2.5"/>
    <circle cx="700" cy="150" r="2.5"/>
    <circle cx="760" cy="150" r="2.5"/>
    <circle cx="820" cy="90" r="2.5"/>
    <circle cx="880" cy="140" r="2.5"/>
    <circle cx="720" cy="200" r="2.5"/>
  </g>

  <!-- ground -->
  <line x1="620" y1="430" x2="1400" y2="430" stroke="#1c3552" stroke-width="1.5" opacity="0.6"/>

  <!-- park / hill -->
  <path d="M620,430 C680,410 730,415 790,430 L790,460 L620,460 Z" fill="#12331f" opacity="0.55"/>

  <!-- trees -->
  <g stroke="#4ade80" stroke-width="2" fill="none" stroke-linecap="round" opacity="0.65">
    <line x1="650" y1="430" x2="650" y2="405"/>
    <circle cx="650" cy="396" r="11"/>
    <line x1="705" y1="430" x2="705" y2="412"/>
    <circle cx="705" cy="405" r="8"/>
  </g>

  <!-- wind turbines -->
  <g stroke="#60a5fa" stroke-width="2" fill="none" stroke-linecap="round">
    <line x1="760" y1="430" x2="760" y2="215"/>
    <circle cx="760" cy="215" r="4" fill="#60a5fa"/>
    <line x1="760" y1="215" x2="760" y2="160"/>
    <line x1="760" y1="215" x2="805" y2="240"/>
    <line x1="760" y1="215" x2="715" y2="240"/>
  </g>
  <g stroke="#3b82f6" stroke-width="1.8" fill="none" stroke-linecap="round" opacity="0.8">
    <line x1="905" y1="430" x2="905" y2="270"/>
    <circle cx="905" cy="270" r="3.5" fill="#3b82f6"/>
    <line x1="905" y1="270" x2="905" y2="222"/>
    <line x1="905" y1="270" x2="943" y2="292"/>
    <line x1="905" y1="270" x2="867" y2="292"/>
  </g>

  <!-- city skyline -->
  <g stroke="#3b82f6" stroke-width="1.5" opacity="0.75">
    <rect x="1010" y="340" width="55" height="90" fill="#0d1a2e"/>
    <rect x="1075" y="290" width="70" height="140" fill="#0d1a2e"/>
    <rect x="1155" y="330" width="50" height="100" fill="#0d1a2e"/>
    <rect x="1215" y="260" width="85" height="170" fill="#0d1a2e"/>
    <rect x="1310" y="310" width="60" height="120" fill="#0d1a2e"/>
    <rect x="1378" y="370" width="22" height="60" fill="#0d1a2e"/>
  </g>

  <!-- lit windows -->
  <g fill="#60a5fa">
    <rect x="1022" y="356" width="5" height="7" opacity="0.8"/>
    <rect x="1038" y="356" width="5" height="7" opacity="0.5"/>
    <rect x="1022" y="376" width="5" height="7" opacity="0.5"/>
    <rect x="1038" y="396" width="5" height="7" opacity="0.8"/>

    <rect x="1090" y="308" width="6" height="8" opacity="0.7"/>
    <rect x="1112" y="308" width="6" height="8" opacity="0.5"/>
    <rect x="1090" y="332" width="6" height="8" opacity="0.5"/>
    <rect x="1112" y="356" width="6" height="8" opacity="0.85"/>
    <rect x="1090" y="380" width="6" height="8" opacity="0.5"/>
    <rect x="1112" y="404" width="6" height="8" opacity="0.6"/>

    <rect x="1168" y="348" width="5" height="7" opacity="0.6"/>
    <rect x="1184" y="368" width="5" height="7" opacity="0.85"/>
    <rect x="1168" y="392" width="5" height="7" opacity="0.5"/>

    <rect x="1232" y="278" width="6" height="8" opacity="0.7"/>
    <rect x="1256" y="278" width="6" height="8" opacity="0.5"/>
    <rect x="1280" y="300" width="6" height="8" opacity="0.85"/>
    <rect x="1232" y="322" width="6" height="8" opacity="0.5"/>
    <rect x="1256" y="346" width="6" height="8" opacity="0.6"/>
    <rect x="1280" y="368" width="6" height="8" opacity="0.5"/>
    <rect x="1232" y="390" width="6" height="8" opacity="0.85"/>

    <rect x="1325" y="328" width="5" height="7" opacity="0.6"/>
    <rect x="1345" y="350" width="5" height="7" opacity="0.85"/>
    <rect x="1325" y="372" width="5" height="7" opacity="0.5"/>
    <rect x="1345" y="394" width="5" height="7" opacity="0.6"/>
  </g>
</svg>
